<svg
                width="184"
                height="143"
                viewBox="0 0 184 143"
                fill="none"
                xmlns="http://www.w3.org/2000/svg"
              >
                <rect
                  x="37.4302"
                  y="37.5863"
                  width="109.106"
                  height="68.1912"
                  fill="#0FA958"
                  stroke="black"
                  stroke-width="1.33504"
                  stroke-linejoin="round"
                ></rect>
                <path
                  d="M37.4302 37.5863H146.536L92.3799 72.0716L37.4302 37.5863Z"
                  fill="#5551FF"
                  stroke="black"
                  stroke-width="1.33504"
                  stroke-linejoin="round"
                ></path>
                <path
                  d="M89.7656 57.9216C90.438 56.5699 92.3638 56.5623 93.0472 57.9088L94.9671 61.6915C95.4372 62.6177 96.331 63.2551 97.3597 63.3978L101.546 63.9785C103.063 64.189 103.671 66.0552 102.569 67.1188L99.6111 69.973C98.8503 70.7071 98.5055 71.7722 98.6916 72.813L99.4168 76.8689C99.6841 78.3635 98.1252 79.5181 96.7733 78.8268L92.9382 76.8656C92.0235 76.3979 90.939 76.4021 90.0282 76.877L86.2091 78.8681C84.8629 79.5699 83.2947 78.4276 83.5498 76.9309L84.2421 72.8694C84.4198 71.8272 84.0664 70.7649 83.2997 70.0367L80.319 67.2058C79.2082 66.1508 79.8011 64.2799 81.3167 64.0575L85.4977 63.4441C86.5253 63.2934 87.4138 62.649 87.8764 61.7192L89.7656 57.9216Z"
                  fill="#FFC700"
                  stroke="black"
                  stroke-width="1.33504"
                ></path>
                <path
                  d="M174.368 77.9369L118.522 133.783"
                  stroke="black"
                  stroke-width="1.33504"
                ></path>
                <circle
                  cx="146.577"
                  cy="105.624"
                  r="5.00639"
                  transform="rotate(-180 146.577 105.624)"
                  fill="white"
                  stroke="black"
                  stroke-width="1.33504"
                ></circle>
                <path
                  d="M110.24 142.06L110.24 132.048L120.253 132.048L120.253 142.06L110.24 142.06Z"
                  fill="white"
                  stroke="black"
                  stroke-width="1.33504"
                ></path>
                <path
                  d="M172.823 79.4774L172.823 69.4646L182.836 69.4646L182.836 79.4774L172.823 79.4774Z"
                  fill="white"
                  stroke="black"
                  stroke-width="1.33504"
                ></path>
                <path
                  d="M65.2287 9.84994L9.38235 65.6964"
                  stroke="black"
                  stroke-width="1.33504"
                ></path>
                <circle
                  cx="37.437"
                  cy="37.5366"
                  r="5.00639"
                  transform="rotate(-180 37.437 37.5366)"
                  fill="white"
                  stroke="black"
                  stroke-width="1.33504"
                ></circle>
                <path
                  d="M1.10059 73.9734L1.10059 63.9606L11.1134 63.9606L11.1134 73.9734L1.10059 73.9734Z"
                  fill="white"
                  stroke="black"
                  stroke-width="1.33504"
                ></path>
                <path
                  d="M63.6836 11.3905L63.6836 1.37767L73.6964 1.37767L73.6964 11.3905L63.6836 11.3905Z"
                  fill="white"
                  stroke="black"
                  stroke-width="1.33504"
                ></path>
                <mask
                  id="path-12-outside-1_1311_15626"
                  maskUnits="userSpaceOnUse"
                  x="10.8818"
                  y="11.201"
                  width="26.6182"
                  height="30.0063"
                  fill="black"
                >
                  <rect
                    fill="white"
                    x="10.8818"
                    y="11.201"
                    width="26.6182"
                    height="30.0063"
                  ></rect>
                  <path d="M28.4431 15.9668L35.0923 35.2407L16.983 27.7358L24.9933 24.2461L28.4431 15.9668Z"></path>
                </mask>
                <path
                  d="M28.4431 15.9668L35.0923 35.2407L16.983 27.7358L24.9933 24.2461L28.4431 15.9668Z"
                  fill="#0FA958"
                ></path>
                <path
                  d="M35.0923 35.2407L34.5812 36.474L37.3218 37.6098L36.3543 34.8053L35.0923 35.2407ZM28.4431 15.9668L29.7052 15.5314L28.5606 12.2138L27.2108 15.4533L28.4431 15.9668ZM24.9933 24.2461L25.5265 25.4701L26.019 25.2555L26.2256 24.7596L24.9933 24.2461ZM16.983 27.7358L16.4498 26.5119L13.5699 27.7665L16.4719 28.9691L16.983 27.7358ZM36.3543 34.8053L29.7052 15.5314L27.1811 16.4022L33.8302 35.6761L36.3543 34.8053ZM27.2108 15.4533L23.761 23.7326L26.2256 24.7596L29.6755 16.4803L27.2108 15.4533ZM24.4601 23.0222L16.4498 26.5119L17.5162 28.9597L25.5265 25.4701L24.4601 23.0222ZM16.4719 28.9691L34.5812 36.474L35.6034 34.0074L17.4941 26.5025L16.4719 28.9691Z"
                  fill="black"
                  mask="url(#path-12-outside-1_1311_15626)"
                ></path>
                <mask
                  id="path-14-outside-2_1311_15626"
                  maskUnits="userSpaceOnUse"
                  x="145.808"
                  y="105.082"
                  width="23.6572"
                  height="27.5576"
                  fill="black"
                >
                  <rect
                    fill="white"
                    x="145.808"
                    y="105.082"
                    width="23.6572"
                    height="27.5576"
                  ></rect>
                  <path d="M151.734 128.244L148.397 108.13L164.999 118.555L156.518 120.657L151.734 128.244Z"></path>
                </mask>
                <path
                  d="M151.734 128.244L148.397 108.13L164.999 118.555L156.518 120.657L151.734 128.244Z"
                  fill="#5551FF"
                ></path>
                <path
                  d="M148.397 108.13L149.107 107L146.595 105.422L147.08 108.349L148.397 108.13ZM151.734 128.244L150.417 128.463L150.991 131.925L152.863 128.956L151.734 128.244ZM156.518 120.657L156.197 119.362L155.675 119.491L155.389 119.945L156.518 120.657ZM164.999 118.555L165.32 119.851L168.369 119.095L165.709 117.424L164.999 118.555ZM147.08 108.349L150.417 128.463L153.051 128.026L149.715 107.912L147.08 108.349ZM152.863 128.956L157.647 121.37L155.389 119.945L150.605 127.532L152.863 128.956ZM156.839 121.953L165.32 119.851L164.678 117.259L156.197 119.362L156.839 121.953ZM165.709 117.424L149.107 107L147.688 109.261L164.289 119.685L165.709 117.424Z"
                  fill="black"
                  mask="url(#path-14-outside-2_1311_15626)"
                ></path>
              </svg>