<svg data-name="Layer 1" xmlns="http://www.w3.org/2000/svg" viewBox="0 0 512 512" class="icon lpanel"><path d="M343.54 291l-73.22 73.22a25 25 0 01-35.36 0L161.74 291a25 25 0 0135.36-35.35l30.54 30.54V165.45a25 25 0 0150 0V286.2l30.54-30.54A25 25 0 11343.54 291z"></path><path d="M442.27 403.16a25 25 0 01-39.8-30.27 188 188 0 00-149.81-301.6 188 188 0 00-149.88 301.56A25 25 0 1163 403.11 238 238 0 01252.64 21.29a238 238 0 01189.63 381.87zM489.64 470a25 25 0 01-25 25h-424a25 25 0 110-50h424a25 25 0 0125 25z"></path><path fill="none" d="M0 0h512v512H0z"></path></svg>